<?xml version="1.0" encoding="UTF-8" standalone="no"?>
<!-- Created with Inkscape (http://www.inkscape.org/) -->

<svg
   version="1.1"
   id="svg1"
   width="320"
   height="320"
   viewBox="0 0 320 320"
   xml:space="preserve"
   xmlns="http://www.w3.org/2000/svg"
   xmlns:svg="http://www.w3.org/2000/svg"><defs
     id="defs1" /><g
     id="g1"><path
       style="fill:#cf2724;stroke:none"
       d="m 132.11166,105.36914 c -0.12369,-5.806267 -5.81866,-9.760367 -10.23406,-12.530487 -1.4244,-0.89363 -2.77227,-2.06273 -4.38603,-2.57694 3.17911,12.010817 -8.92373,20.964197 -16.56943,28.275097 -13.768812,13.16591 -27.601629,36.18638 -16.216162,55.05942 1.55934,2.58481 3.50879,4.84424 5.73843,6.86407 3.92252,3.5534 8.62312,7.55813 13.645422,9.4617 -1.11176,-4.51274 -0.88528,-10.42784 0.49354,-14.86376 0.52161,-1.67814 2.64932,-3.52433 2.74898,-5.11703 0.0708,-1.13207 -0.0934,-4.37755 -0.56819,-5.3607 -1.04445,-2.16289 -2.78607,-3.66499 -3.46719,-6.09171 -0.62679,-2.23318 -0.58821,-4.65685 0.2886,-6.82271 0.39764,-0.98224 1.38754,-1.87337 1.54643,-2.92402 0.27432,-1.8139 -1.08573,-3.14369 -0.38431,-5.11703 2.07735,-5.84427 8.40285,-9.68889 13.47488,-12.66811 14.70854,-8.63953 33.20645,-10.65318 49.46464,-5.60078 8.09157,2.51454 15.99395,6.94183 22.13245,12.80498 2.47805,2.3669 6.15669,6.83989 2.92025,10.06108 -0.80425,0.80046 -1.89684,1.00091 -2.87889,1.49454 0.72705,2.30156 2.14893,4.2836 2.04803,6.82271 -0.085,2.14057 -1.56974,3.22188 -2.09165,5.11703 -0.29934,1.08691 0.21832,4.17931 0.40611,5.35713 0.16763,1.05131 1.35061,1.67328 1.98188,2.44382 0.87056,1.06263 1.41421,2.33271 1.76,3.65145 0.50481,1.92515 -0.34813,3.25069 -0.43958,5.11703 -0.22405,4.57225 0.18504,8.95305 -1.22811,13.40175 4.12047,-0.61764 8.54137,-3.81625 11.93974,-6.09188 3.94494,-2.64164 7.59888,-5.87497 10.37337,-9.74655 11.68499,-16.30549 4.34205,-38.74841 -7.5537,-52.63232 -2.77733,-3.24152 -6.22175,-6.00194 -9.88605,-8.17455 -4.88108,-2.89405 -10.03276,-5.46613 -12.64405,-10.83157 -2.3187,-4.764287 -2.17619,-10.426647 0.89289,-14.863757 1.18003,-1.70602 3.33197,-2.81332 4.19745,-4.6297 -11.03354,0 -17.81055,10.0885 -20.95546,19.737127 h -0.48734 c -1.53148,-6.216377 0.5654,-12.520477 -3.09341,-18.275117 -6.04276,-9.504126 -21.61318,-11.016834 -20.51965,-24.610482 0.25442,-3.162659 2.53668,-5.38854 3.3886,-8.284719 -3.5277,0.288107 -6.34984,2.000389 -9.01572,4.203277 -6.15329,5.08464 -10.696,14.3389 -8.42403,22.356555 2.3407,8.260189 11.54939,18.604969 1.60132,25.585156 m 6.82271,-41.423587 -0.73101,-0.487336 0.73101,0.487336 m 16.32577,26.8035 0.24366,1.21834 -1.21834,-0.48734 v -0.48733 l 0.97468,-0.24367 m 2.68035,4.14236 0.24366,0.24367 -0.731,0.48733 0.48734,-0.731 m -19.49346,2.92402 c 0.20817,0.65723 0.20731,0.82505 -0.48733,0.97467 l 0.48733,-0.97467 m 36.7939,6.335367 0.24366,0.97467 h -1.462 l 1.21834,-0.97467 m -15.10743,7.79738 -0.97467,0.73101 c -1.12297,-1.14589 0.37509,-2.21681 0.97467,-0.73101 m 14.62009,-0.731 -0.731,0.731 0.731,-0.731 m -17.54411,0.48733 0.48734,1.21834 -1.46201,0.48734 0.48733,-1.70568 h 0.48734 m 34.84455,2.92402 -0.97467,-1.21834 c 0.76539,0.23051 0.99143,0.41607 0.97467,1.21834 m -18.27511,0.97467 -0.24367,0.24367 0.24367,-0.24367 m 25.82882,3.41136 -0.97467,-0.24367 c 0.50663,-0.4003 0.62879,-0.28837 0.97467,0.24367 m -52.38865,2.19301 -0.73101,-0.48734 0.73101,0.48734 m 48.24629,0.97467 h -0.97467 0.97467 m -74.80612,0.73101 v 0.97467 l -0.73101,-0.24367 v -0.48733 l 0.24367,-0.24367 h 0.48734 m 26.07249,25.58516 c -0.53685,-2.34399 1.35615,-4.04966 3.16769,-5.27309 3.94931,-2.66717 12.54986,-4.63676 9.3485,-11.29635 -2.26868,-4.7194 -9.32633,-7.08343 -14.22187,-6.43878 -10.02064,1.31955 -18.96571,4.00894 -27.77817,9.05088 -3.30577,1.89136 -6.70382,4.24865 -8.94238,7.3783 -0.89962,1.2577 -1.85635,3.06923 -1.13167,4.61898 0.64114,1.37111 2.19483,1.37386 3.49502,1.51314 2.98925,0.32023 6.0086,0.20325 9.01571,0.20325 3.73191,0 7.46307,0.24367 11.20874,0.24367 5.05009,0 10.88852,1.17845 15.83843,0 m 36.55023,-20.7118 c 0.63686,-2.0957 2.23122,0.29224 0,0 m -38.25591,0.97467 c -0.82366,1.58435 -2.77339,1.93765 -4.38602,1.46201 0.80569,-1.6129 2.77528,-2.10825 4.38602,-1.46201 m -15.59476,2.68035 c -0.57694,0.92448 -1.38937,1.18994 -2.43668,0.97468 0.56433,-1.02274 1.36217,-0.91452 2.43668,-0.97468 m 5.11703,1.21835 c -0.37706,1.2421 -1.27124,1.21422 -2.43668,1.21834 l 2.43668,-1.21834 m -42.641922,3.16768 -0.731,0.24367 -0.48734,-1.21834 1.21834,0.97467 m 49.464632,-0.48733 0.24367,0.24366 c -0.53725,1.07462 -1.25996,1.39174 -2.43668,1.21834 l 2.19301,-1.462 m -15.59476,0.48733 0.24366,1.46201 -4.14235,0.73101 c 0.29427,-1.8612 2.27106,-2.15835 3.89869,-2.19302 m -35.331882,1.46201 c 0.12046,0.76445 0.009,0.97458 -0.731,1.21834 l 0.24367,-1.21834 h 0.48733 m 29.483842,0 0.48734,0.73101 -0.48734,-0.73101 m 9.9904,2.43668 c -0.36711,1.14397 -1.31195,1.47845 -2.43669,1.21834 0.59179,-0.93715 1.33493,-1.28416 2.43669,-1.21834 m 82.84718,6.82271 v 0.73101 h -0.48734 v -0.73101 h 0.48734 m 0,1.21834 -0.24367,0.24367 0.24367,-0.24367 m -105.2419,2.93079 c -4.33176,2.35946 -1.86566,11.40001 2.41394,12.32517 4.96171,1.07264 7.96655,-6.71782 13.15807,-5.91629 5.87849,0.9076 8.90901,7.70887 14.62009,9.31842 5.67953,1.60067 9.84515,-3.27857 14.86376,-4.77427 2.67392,-0.7969 5.00041,1.58358 7.79738,1.45768 2.8436,-0.12799 4.65031,-2.32218 7.31004,-2.91066 3.01715,-0.66756 7.18285,2.38088 9.69108,-0.0714 1.27407,-1.24568 0.47606,-3.24944 -0.92353,-4.04065 -1.40896,-0.7965 -3.55266,-0.60639 -5.11252,-0.49956 -5.19803,0.35597 -10.61879,1.50759 -15.83844,0.88329 -5.8759,-0.70277 -10.693,-3.92668 -16.32576,-5.12811 -4.93913,-1.05348 -11.26279,-0.40668 -16.32577,-0.40668 -3.66286,0 -7.30393,-0.15756 -10.96506,-0.24724 -1.32974,-0.0326 -3.1164,-0.66882 -4.36328,0.0103 m 87.45412,4.13559 -0.24367,0.97467 h -0.24367 v -0.97467 h 0.48734 m 14.37642,2.92402 v 0.48733 h -0.731 v -0.48733 h 0.731 m -14.62009,0.731 v 0.73101 l -0.48734,-0.73101 h 0.48734 m -102.096952,0.97467 -0.48734,0.73101 -0.24367,-0.24367 0.24367,-0.48734 h 0.48734 m 113.062022,1.54323 0.0812,0.0812 c -0.12026,0.0401 -0.26964,-0.0812 -0.0812,-0.0812 m -116.717052,0.89346 v 1.21834 h -0.48734 v -1.21834 h 0.48734 m 83.334512,12.18341 c -0.62907,-2.38136 -3.86407,-1.72701 -5.84804,-2.50212 -4.21272,-1.64585 -5.00851,-7.34649 -10.23406,-6.02627 4.38296,9.37676 16.75992,15.90405 24.60955,6.09151 1.60099,-2.00134 2.63203,-4.29902 3.10507,-6.82252 0.2898,-1.54594 0.14108,-3.02317 -1.8856,-2.58333 -2.54254,0.55179 -2.30422,3.85806 -3.25982,5.75102 -1.1267,2.23186 -4.36894,4.86166 -6.4871,6.09171 m 14.62009,-11.45241 -1.21834,5.60437 c 2.40928,-0.18558 2.68689,-4.16623 1.21834,-5.60437 m 25.82883,2.43668 c -0.064,0.83085 -0.16539,1.19425 -0.97468,1.46201 0.064,-0.83084 0.16538,-1.19425 0.97468,-1.46201 m -14.13276,1.46201 v 0.97467 l -0.731,-0.24366 v -0.48734 l 0.24366,-0.24367 h 0.48734 m -23.39214,11.93974 c 1.35936,2.9069 6.38741,5.05917 8.36067,1.43926 0.93474,-1.71475 0.0984,-4.11992 1.89896,-5.40431 2.08032,-1.48396 4.09875,0.26709 6.06613,0.79737 -0.003,-4.40584 -3.00138,-6.20679 -6.9874,-4.2484 -1.42962,0.70239 -2.5685,2.88441 -3.734,3.99496 -1.66393,1.58548 -3.61891,2.36264 -5.60436,3.42112 m -12.18341,-6.82271 -0.73101,-0.731 0.73101,0.731 m -52.14498,0.48734 c -0.97001,4.24136 -1.77549,8.786 -1.14521,13.15808 0.27014,1.87388 1.16537,4.09432 3.09455,4.75473 1.476,0.50527 2.60218,-0.20609 3.52885,-1.34714 2.40267,-2.95852 3.95644,-5.5939 7.43621,-7.47474 7.8213,-4.22747 18.37564,-5.29403 27.04717,-6.71423 2.46705,-0.40405 5.16919,-0.43379 7.55371,-1.15836 -2.60695,-3.74204 -9.3422,-1.88971 -13.40175,-1.50337 -11.06066,1.05264 -23.03262,1.15961 -34.11353,0.28503 m 78.21747,-0.48734 c 0.45773,0.90235 0.4488,1.64244 -0.731,1.46201 l 0.731,-1.46201 m -40.69258,0.81223 c 0.18841,0 0.039,0.12132 -0.0812,0.0812 l 0.0812,-0.0812 m 56.53101,2.8428 v 0.48733 l -0.48733,-0.48733 h 0.48733 m -83.82185,10.7214 c 2.51356,1.20962 6.26556,0.97467 9.01572,0.97467 5.40189,0 10.67798,0.1133 16.0821,-0.26547 2.16421,-0.1517 7.5454,-0.45606 7.25948,-3.63322 -0.17443,-1.93837 -2.33405,-5.20674 -4.33546,-5.54778 -2.13922,-0.36451 -4.96282,0.7411 -7.06638,1.16175 -4.83395,0.96666 -9.68949,2.03024 -14.37642,3.57474 -2.2467,0.74036 -5.0463,1.88074 -6.57904,3.73531 m 0.48734,-5.60437 -1.70568,0.48733 v -0.48733 h 1.70568 m 55.31267,4.62969 c 0.16491,1.101 0.55202,2.17603 1.06586,3.16675 1.3339,2.57189 4.4546,3.20777 6.43314,0.96508 1.34596,-1.52566 1.72723,-4.1511 1.27306,-6.08117 l -3.16769,1.4763 -5.60437,0.47304 M 74.362311,205.37744 c -1.40441,0.20165 -2.70905,0.5739 -3.89512,1.38324 -3.28647,2.24255 -3.57814,7.32022 -0.86506,10.10131 1.37235,1.40675 3.19761,1.86056 5.00385,2.46262 1.655817,0.55194 4.494007,1.10527 3.924447,3.49259 -0.4385,1.83798 -2.44815,2.62131 -4.167927,2.39043 -2.24273,-0.30108 -1.6597,-3.25283 -3.65897,-3.34122 -2.38022,-0.10523 -4.43942,3.33616 -2.59913,5.24092 1.78866,1.85134 6.31506,2.04028 8.694587,1.73106 6.16498,-0.80112 10.30976,-8.83619 4.14236,-12.85217 -1.91097,-1.24435 -8.195797,-1.50847 -7.974677,-4.62125 0.13421,-1.88923 2.01902,-2.3446 3.587517,-2.16669 2.20944,0.25063 1.22819,3.25092 4.13973,2.85127 1.91622,-0.26303 2.79962,-4.13146 1.38831,-5.38703 -1.73007,-1.53913 -5.57448,-1.59312 -7.719917,-1.28508 m 46.296949,23.2878 h 7.79738 c 0,-0.8351 0.15509,-1.86532 -0.14609,-2.65855 -0.37519,-0.98815 -1.24865,-1.30335 -0.85359,-2.47916 0.6331,-1.88426 5.95679,-2.31605 7.05735,-0.65468 1.253,1.89146 -1.87541,3.59759 -0.44654,5.40169 0.48661,0.61439 1.74692,0.39065 2.42992,0.3907 1.8436,1.2e-4 5.68481,0.83865 5.5803,-1.94596 -0.0578,-1.54077 -2.20952,-3.25945 -2.77681,-4.87675 -1.28012,-3.64957 -2.56518,-7.29125 -3.77797,-10.96507 -0.49448,-1.49785 -0.81019,-3.84059 -1.87696,-5.03958 -0.73598,-0.82718 -2.94641,-0.76753 -3.94495,-0.48733 -1.56,0.43775 -2.01438,3.93709 -2.463,5.28324 -1.40487,4.21544 -2.62464,8.5556 -4.31289,12.67057 -0.50826,1.23883 -1.87272,1.49969 -2.36184,2.53876 -0.36628,0.77812 0.06,1.99087 0.0957,2.82212 m 31.92053,-23.28516 c -1.38312,0.2177 -2.77368,0.62335 -3.8985,1.48475 -5.24406,4.01599 -1.99518,10.29625 3.16749,12.08753 1.92512,0.66794 5.60981,1.1941 4.82391,4.10833 -0.4694,1.7406 -2.72889,2.43686 -4.33544,2.10915 -1.99746,-0.40744 -1.31571,-3.11187 -3.41362,-3.29723 -2.45902,-0.21727 -4.07897,3.45432 -2.35809,5.23472 1.86506,1.9296 6.47678,2.0822 8.93826,1.69458 1.40649,-0.22148 2.73679,-0.71146 3.8985,-1.54717 4.40532,-3.16905 3.61863,-10.02228 -1.46181,-11.97546 -1.91104,-0.73469 -6.655,-1.09091 -6.655,-3.91448 0,-1.82262 2.05041,-2.30309 3.48637,-2.17874 1.67165,0.14477 1.19562,1.29707 1.95611,2.30714 0.50482,0.67048 2.38426,0.50305 3.10621,0.28148 1.20518,-0.36988 1.65136,-4.20441 0.7092,-4.95365 -1.96863,-1.56553 -5.58102,-1.81598 -7.96359,-1.44095 m -58.967692,5.98472 h 0.24367 c 0.8571,3.73869 2.44597,7.35716 3.73003,10.96506 0.62367,1.75234 0.95841,4.00232 1.97587,5.56828 0.664172,1.02222 3.669962,1.19185 4.650192,0.51666 1.13464,-0.78155 1.41453,-3.38435 1.82731,-4.62293 1.38111,-4.14411 2.7913,-8.2749 4.14236,-12.42707 h 0.24367 c 0,4.05116 0.0426,8.40781 -0.49203,12.42594 -0.22164,1.66564 -2.32055,2.28139 -1.31048,4.3097 0.3263,0.65522 1.18682,0.56036 1.80251,0.56462 1.21825,0.008 5.58973,0.6633 6.01423,-0.76692 0.64885,-2.18603 -1.39725,-2.53322 -1.60169,-4.35011 -0.44688,-3.97155 -0.19472,-8.43237 -0.0218,-12.4269 0.0906,-2.09295 2.44333,-2.51063 1.6331,-4.83727 -0.45912,-1.31839 -6.89454,-1.25262 -7.70863,-0.20231 -1.06728,1.377 -1.422,3.88227 -1.97022,5.52691 -1.32246,3.96738 -2.75691,7.91625 -3.89869,11.93974 -2.14493,-3.71568 -3.111842,-8.83807 -4.554492,-12.91441 -0.46054,-1.30131 -0.91909,-4.06791 -2.12646,-4.8666 -0.96341,-0.63729 -6.99476,-0.74858 -7.54845,0.34257 -1.02233,2.0147 1.52323,2.95078 1.55752,4.76788 0.0798,4.22844 0.35866,8.70193 -0.0131,12.9133 -0.16047,1.81756 -2.20784,1.94605 -1.39208,4.1072 0.44336,1.17455 6.06692,1.32656 6.62004,0.2023 0.9245,-1.87914 -1.0631,-2.60399 -1.44942,-4.07469 -0.35135,-1.33755 0.22983,-2.97486 0.0649,-4.37624 -0.3175,-2.69721 -0.41747,-5.56819 -0.41777,-8.28471 m 80.166822,6.57904 c 1.62901,0.38784 5.49581,-0.54854 6.67568,0.63436 0.7164,0.71823 0.42028,5.2597 -0.10323,6.1216 -0.67193,1.10626 -2.28072,1.99096 -0.96489,3.57474 0.69335,0.83453 6.76948,0.82298 7.61331,0.14026 0.70248,-0.56836 0.42454,-2.12058 0.42454,-2.91725 -1.873,-0.38243 -1.70567,-1.80168 -1.70567,-3.41135 0,-3.58679 -0.87391,-8.46325 0.0774,-11.91416 0.3785,-1.37296 2.60135,-2.25547 1.37779,-4.09049 -0.76713,-1.15049 -7.46299,-1.05799 -8.06024,0.22187 -0.92696,1.9864 0.96044,2.37323 1.41652,3.86503 0.41949,1.37211 -0.0239,2.9402 0.31511,4.36403 -1.49691,0.3564 -5.40934,0.88468 -6.74525,-0.007 -1.73704,-1.15912 -0.54967,-5.08948 1.14089,-5.59761 l -0.24367,-3.41135 h -5.60437 c -0.64427,3e-4 -1.72413,-0.18037 -2.18718,0.3907 -1.63937,2.02177 1.237,3.27029 1.42967,4.97094 0.44296,3.90995 0.42849,8.75279 -0.032,12.66002 -0.19761,1.67685 -2.46765,2.59552 -1.50017,4.56202 0.32274,0.65602 1.18928,0.56039 1.80231,0.56462 1.20906,0.008 5.53526,0.65123 6.1545,-0.56462 0.97263,-1.90971 -1.0648,-2.41083 -1.44735,-3.83459 -0.46963,-1.74788 -0.2486,-4.57963 0.16622,-6.32201 m 37.5249,-12.18341 c -1.65107,-0.005 -6.87637,-1.25097 -8.03786,0.14703 -1.65851,1.99625 0.92911,2.94602 1.17905,4.48736 0.65953,4.06717 0.21086,9.03265 0.0314,13.15321 -0.0731,1.67951 -2.76109,2.8109 -1.20781,4.72651 0.55555,0.68514 2.14203,0.3907 2.91818,0.3907 2.20838,0 5.25182,0.74034 5.03958,-2.41018 -0.076,-1.12789 -1.58932,-1.03244 -1.81624,-2.22422 -0.56357,-2.9599 -0.0556,-6.48409 -0.0556,-9.49836 0,-1.36174 -0.26581,-3.08187 0.25157,-4.37193 0.30382,-0.75759 1.00886,-0.82044 1.44752,-1.40861 0.52588,-0.7051 0.25026,-2.15655 0.25026,-2.99151 m 7.06637,3.41135 3.89869,0.24367 c 0,4.69629 0.19962,9.44122 -0.005,14.13258 -0.0774,1.77724 -1.98801,2.30127 -1.37985,4.35011 0.42453,1.43022 4.79598,0.77531 6.01425,0.76692 0.61305,-0.004 1.47957,0.0914 1.80232,-0.56462 0.91298,-1.8557 -1.15819,-2.93454 -1.30069,-4.55317 -0.40399,-4.58855 -0.34856,-9.78366 -0.0143,-14.37549 1.07977,0.25709 2.36898,-0.003 3.38596,0.38957 0.97471,0.37603 1.61317,1.54791 2.84374,0.92541 1.1636,-0.58861 0.64669,-3.96401 0.34934,-4.97 -4.36221,0.6943 -9.44577,0 -13.88909,0 -1.00064,0 -3.95596,-0.5056 -4.48267,0.56479 -0.39205,0.79674 -0.41244,3.46482 0.10341,4.20197 0.95293,1.36174 2.39907,-0.0936 2.67358,-1.11174 m -87.47687,1.46201 c 1.18558,1.94106 2.23754,6.01812 2.43668,8.28472 h -4.38603 l 1.94935,-8.28472 m -73.344109,26.8035 c -3.5e-4,3.21427 -0.95207,6.96401 0.57946,9.98946 1.8454,3.64546 7.16381,3.46952 9.09939,9.4e-4 1.23724,-2.21717 0.55629,-5.15484 0.55521,-7.55372 -2.7e-4,-0.58906 0.22888,-2.28175 -0.731,-2.28175 -1.15442,0 -0.67504,2.37082 -0.59075,3.01276 0.41095,3.12985 -0.86183,10.87384 -5.72188,7.52117 -2.37817,-1.64054 -1.72842,-5.27563 -1.72842,-7.76484 0,-1.40054 0.38827,-3.06608 -1.46201,-2.92402 m 45.565949,10.23406 -0.24367,2.43669 c 2.11974,-0.16515 1.46273,-2.78357 1.46201,-4.38603 -3.1e-4,-0.70087 0.20503,-1.91086 -0.5648,-2.28966 -0.89497,-0.44038 -4.587022,-0.50586 -5.375182,0.13914 -1.29027,1.05592 1.59451,1.15883 2.041292,1.10627 0.739,-0.0869 1.44745,-0.16792 2.19301,-0.17409 -0.13788,1.23803 -0.75377,2.04735 -1.70661,2.84391 -0.64598,0.54005 -1.391282,1.00151 -2.192082,1.27194 -6.47253,2.18579 -8.24136,-10.80081 -0.48734,-9.91781 1.958652,0.22302 3.245732,1.95087 5.117032,2.3906 -0.6464,-3.33149 -4.942782,-4.39459 -7.797382,-3.46361 -3.65518,1.19204 -5.44764,6.04343 -3.37883,9.31165 0.59823,0.94505 1.4509,1.84702 2.40416,2.43799 1.19141,0.73865 2.77174,1.03821 4.14236,0.77538 1.778252,-0.34096 2.876682,-1.61091 4.386032,-2.48237 m 49.46463,-6.57904 c 0.75694,-4.04845 -5.85667,-4.79073 -7.9854,-2.41375 -3.37547,3.76913 2.6219,5.4114 5.06138,6.17688 0.83416,0.26176 1.93444,0.7873 1.80758,1.84198 -0.33976,2.82453 -4.41708,2.44728 -5.855,0.92206 -0.31801,-0.33733 -1.15904,-2.03583 -1.79385,-1.24882 -0.82298,1.02029 0.95328,2.67055 1.7085,3.12011 1.91011,1.13708 4.89353,1.02691 6.48578,-0.65316 0.37954,-0.40048 0.64833,-0.8863 0.81618,-1.40992 1.544,-4.81653 -5.3454,-3.44832 -7.20118,-5.87436 -1.07915,-1.41076 0.89631,-2.84865 2.2229,-2.92289 1.9768,-0.11062 3.10598,1.70758 4.73311,2.46187 m 27.04716,9.01573 c -0.30677,-1.04603 -1.27258,-1.47442 -1.67352,-2.44026 -0.30658,-0.7385 0.24548,-1.41455 0.10887,-2.15221 -0.31252,-1.68748 -1.46564,0.71356 -1.60303,1.18111 l -3.41136,-3.41135 c 1.32441,-0.54336 3.2914,-1.11049 3.70467,-2.68392 0.7555,-2.87635 -3.43708,-3.97869 -5.40941,-3.02462 -3.06593,1.4831 -0.81845,3.33195 -1.34657,5.44307 -0.33596,1.34297 -1.80099,1.80428 -1.80099,3.43315 0,2.70186 3.20635,4.27835 5.58331,3.73287 0.90517,-0.20774 1.72957,-1.01659 2.61077,-1.11983 0.94536,-0.11074 2.14212,0.98505 3.23726,1.04199 m 16.81311,-9.50306 h 0.24367 c 1.05895,2.47017 2.3402,4.87764 3.48919,7.31004 0.33179,0.70239 0.86783,2.19287 1.8591,2.07945 0.96083,-0.10991 1.42313,-1.58581 1.77147,-2.32312 1.14386,-2.42115 2.25472,-4.87092 3.35797,-7.31004 h 0.24367 l -0.24367,9.74673 h 1.46201 v -9.50306 c 0,-0.74636 0.33668,-2.66078 -0.38976,-3.14663 -1.05937,-0.70852 -1.88317,1.53958 -2.17498,2.17195 -1.32005,2.8607 -3.05494,5.68001 -3.77064,8.77206 h -0.48733 c -0.43265,-1.5019 -1.19992,-2.98253 -1.88993,-4.38603 l -1.46127,-2.92402 -0.85151,-1.70567 c -0.33665,-0.66608 -1.77075,-3.0894 -2.29888,-1.20294 -0.63478,2.26747 -0.0774,5.42724 -0.0774,7.78198 0,0.94046 -0.38011,2.97785 0.24932,3.74696 1.23621,1.51055 1.21269,-2.60881 1.21269,-3.01596 v -2.43668 c -0.002,-1.23045 -0.21836,-2.42853 -0.24367,-3.65502 m 24.61048,-3.30419 c -8.66397,1.32257 -6.63642,14.00256 1.94935,12.73393 8.05781,-1.19065 6.04625,-13.95447 -1.94935,-12.73393 m -180.167409,0.38694 c -0.98893,0.78325 -0.3907,4.42474 -0.3907,5.5976 0,1.41038 -0.72743,5.10254 0.0103,6.22972 0.48514,0.74117 1.66903,0.59174 2.42634,0.59299 2.07125,0.003 4.85538,0.35381 6.5657,-1.07075 2.46894,-2.05646 0.2295,-3.3969 0.0148,-5.51789 -0.16656,-1.64568 1.15112,-2.55255 0.26172,-4.37267 -1.09116,-2.233 -4.29206,-1.70944 -6.35493,-1.70944 -0.70917,0 -1.93662,-0.22216 -2.53332,0.25044 m 33.72285,12.42031 h 1.461997 v -5.3607 c 1.2506,8.3e-4 3.08017,-0.17816 4.02768,0.79605 1.41284,1.45267 1.95968,4.9131 4.50071,4.56465 l -3.16769,-5.60437 c 2.73702,-0.41213 4.16672,-3.51769 2.27856,-5.79596 -1.47923,-1.78485 -4.62241,-1.27134 -6.66458,-1.27042 -0.71434,3.3e-4 -1.976017,-0.19872 -2.388547,0.56479 -0.42072,0.7787 -0.0481,2.45191 -0.0481,3.3339 v 8.77206 m 37.768569,-1.46201 0.24367,-4.38603 6.33536,0.24367 v -1.46201 h -6.57903 c 0,-1.0344 -0.35909,-2.90742 0.25043,-3.79302 0.90252,-1.3113 5.80054,-0.34934 7.30327,-0.34934 v -1.46201 c -2.02981,0 -6.75218,-0.88312 -8.45091,0.25044 -0.74439,0.49672 -0.56446,1.66231 -0.5648,2.42991 v 7.06638 c 0,0.72624 -0.26141,2.15711 0.39069,2.67357 1.2025,0.95242 5.16843,0.26065 6.67568,0.25027 0.53275,-0.004 1.8491,0.0972 1.8651,-0.73083 0.0146,-0.75664 -1.12747,-0.72059 -1.62144,-0.72987 -1.94786,-0.0367 -3.89977,-0.001 -5.84802,-0.001 m 15.59475,1.46201 v -2.68035 c 9.2e-4,-2.0465 1.66509,-3.97808 3.83194,-2.28966 1.952,1.52102 1.66628,4.8714 4.69645,4.97001 l -2.92402,-5.3607 c 2.61266,-0.91311 4.22607,-4.3882 1.67935,-6.47357 -1.40003,-1.14642 -6.55044,-1.49175 -8.18094,-0.68945 -0.93193,0.45857 -0.56479,2.41857 -0.56479,3.26432 0,2.05292 -1.10046,9.05975 1.46201,9.2594 m 106.97033,0 h 1.46201 v -5.60437 c 1.08844,0.25913 2.91347,-0.11181 3.77723,0.63436 1.82256,1.57448 1.83161,4.50926 4.50749,5.21367 l -2.92402,-5.60436 c 2.48512,-0.73815 4.31247,-3.77225 2.3346,-6.04565 -1.52788,-1.75617 -4.40522,-1.26453 -6.47696,-1.2644 -0.74003,5e-5 -2.13119,-0.25244 -2.53332,0.56479 -0.45611,0.92693 -0.14703,2.5652 -0.14703,3.57757 v 8.52839 m 16.8131,0 h 6.57904 c 0.60504,-0.001 1.99813,0.18757 2.25358,-0.57872 0.28462,-0.85376 -1.03586,-0.87297 -1.52275,-0.88216 -1.94777,-0.0368 -3.89967,-0.001 -5.84786,-0.001 0,-0.96007 -0.4567,-3.5084 0.56479,-4.02918 1.73614,-0.88512 5.79102,1.2902 6.01425,-1.57519 -1.66992,0 -4.5213,0.55509 -6.04601,-0.14703 -0.97572,-0.44929 -0.79448,-3.43723 0.0318,-3.98856 1.70946,-1.1407 6.54332,1.20161 6.98893,-1.46878 h -6.09171 l -2.53332,0.25044 -0.6308,3.16091 0.2401,9.2594 M 173.0477,238.56297 c 3.69087,-0.16177 1.76106,4.02445 -0.94234,3.84698 -2.1761,-0.14285 -1.09115,-3.75787 0.94234,-3.84698 m -130.570029,0.19835 c 1.19208,-0.38676 4.74278,-0.19695 5.73447,0.59074 0.98314,0.7809 0.71803,2.7331 -0.42416,3.19438 -1.04887,0.4236 -4.73113,0.74877 -5.65288,0.001 -0.75895,-0.61559 -0.65384,-3.463 0.34257,-3.78626 m 33.346437,4.52403 c 0.25591,-1.17687 -0.51743,-3.26951 0.25044,-4.239 0.93491,-1.18042 5.80608,-0.45951 6.63507,0.63963 1.10854,1.46978 0.11567,3.36638 -1.52481,3.72534 -0.79197,0.17329 -1.63166,0.11764 -2.43668,0.11769 -1.00337,6e-5 -1.95849,0.0417 -2.92402,-0.24366 m 52.709772,-4.48267 c 1.20517,-0.59302 4.66573,-0.26299 5.73449,0.52118 1.29863,0.95285 0.86118,3.21214 -0.46195,3.91787 -0.94596,0.50454 -4.56948,0.73158 -5.44663,0.0368 -0.74026,-0.5863 -0.71432,-4.03874 0.17409,-4.4759 m 92.51645,-0.0669 c 6.46239,-1.1228 7.73694,9.00163 1.46201,10.07368 -6.35094,1.08503 -7.83801,-8.96591 -1.46201,-10.07368 m 15.3511,4.79326 c 0,-1.18282 -0.39497,-3.21243 0.14703,-4.28035 0.38364,-0.75592 1.5889,-0.60544 2.28965,-0.58944 1.09465,0.025 2.95385,-4.8e-4 3.8626,0.66464 1.40857,1.03092 0.69981,3.29613 -0.70544,3.93968 -0.53621,0.24556 -1.1169,0.25651 -1.69515,0.26454 -1.29902,0.018 -2.59952,9.3e-4 -3.89869,9.3e-4 m -194.447199,5.11704 v -4.6297 c 1.72577,0.0354 5.02769,-0.42443 6.52358,0.49391 1.30272,0.79976 1.07632,3.08532 -0.20249,3.75262 -1.70006,0.88707 -4.45419,0.38317 -6.32109,0.38317 m 129.397539,-4.34321 c 2.73206,0.29668 5.86839,5.03078 0.96508,4.53832 -1.18324,-0.11883 -2.53273,-0.87633 -2.758,-2.1445 -0.1629,-0.91698 0.7268,-2.50958 1.79292,-2.39382 z"
       id="path9" /></g></svg>
